<svg width="18" height="18" viewBox="0 0 18 18" fill="none" xmlns="http://www.w3.org/2000/svg">
<path fill-rule="evenodd" clip-rule="evenodd" d="M15.5 0H2.5C1.11929 0 0 1.11929 0 2.5V15.5C0 16.8807 1.11929 18 2.5 18H15.5C16.8807 18 18 16.8807 18 15.5V2.5C18 1.11929 16.8807 0 15.5 0ZM12.8537 6.14649C12.6584 5.95123 12.3418 5.95123 12.1466 6.14649L7.50012 10.7929L5.85367 9.14649C5.65841 8.95123 5.34183 8.95123 5.14656 9.14649C4.9513 9.34175 4.9513 9.65834 5.14656 9.8536L7.14657 11.8536C7.34183 12.0489 7.65841 12.0489 7.85367 11.8536L12.8537 6.8536C13.0489 6.65834 13.0489 6.34175 12.8537 6.14649Z" fill="#45D1C9"/>
</svg>
